<svg xmlns="http://www.w3.org/2000/svg" xmlns:xlink="http://www.w3.org/1999/xlink" viewBox="0,0,256,256" width="480px" height="480px" fill-rule="nonzero"><g fill="none" fill-rule="nonzero" stroke="none" stroke-width="1" stroke-linecap="butt" stroke-linejoin="miter" stroke-miterlimit="10" stroke-dasharray="" stroke-dashoffset="0" font-family="none" font-weight="none" font-size="none" text-anchor="none" style="mix-blend-mode: normal"><g transform="scale(5.33333,5.33333)"><path d="M13.083,42h21.834c3.912,0 7.083,-3.171 7.083,-7.083v-21.834c0,-3.912 -3.171,-7.083 -7.083,-7.083h-21.834c-3.912,0 -7.083,3.171 -7.083,7.083v21.834c0,3.912 3.171,7.083 7.083,7.083z" fill-opacity="0" fill="#f50057"></path><path d="M13.083,42h21.834c3.912,0 7.083,-3.171 7.083,-7.083v-21.834l-36,21.834c0,3.912 3.171,7.083 7.083,7.083z" fill-opacity="0" fill="#ff3d00"></path><path d="M42,13.083l-36,21.834c0,3.912 3.171,7.083 7.083,7.083h0.042l28.875,-17.513z" fill-opacity="0" fill="#ff1744"></path><path d="M30.5,12h-15.5v-2h-3v2h-2v3h20.5c1.378,0 2.5,1.121 2.5,2.5v12.5h3v-12.5c0,-3.032 -2.467,-5.5 -5.5,-5.5z" fill="#ffffff"></path><path d="M38,33h-20.5c-1.378,0 -2.5,-1.121 -2.5,-2.5v-12.5h-3v12.5c0,3.032 2.467,5.5 5.5,5.5h15.5v2h3v-2h2z" fill="#ffffff"></path><path d="M24,31c-3.86,0 -7,-3.141 -7,-7c0,-3.859 3.14,-7 7,-7c3.86,0 7,3.141 7,7c0,3.859 -3.14,7 -7,7zM24,20c-2.206,0 -4,1.794 -4,4c0,2.206 1.794,4 4,4c2.206,0 4,-1.794 4,-4c0,-2.206 -1.794,-4 -4,-4z" fill="#ffffff"></path></g></g></svg>