<svg xmlns="http://www.w3.org/2000/svg" xmlns:xlink="http://www.w3.org/1999/xlink" viewBox="0,0,256,256" width="240px" height="240px" fill-rule="nonzero"><defs><linearGradient x1="24" y1="-3.805" x2="24" y2="56.244" gradientUnits="userSpaceOnUse" id="color-1"><stop offset="0.143" stop-color="#073042" stop-opacity="0"></stop><stop offset="1" stop-color="#073042" stop-opacity="0"></stop></linearGradient><linearGradient x1="16.5" y1="27.25" x2="35" y2="27.25" gradientUnits="userSpaceOnUse" id="color-2"><stop offset="0" stop-color="#ffffff"></stop><stop offset="1" stop-color="#ffffff"></stop></linearGradient></defs><g fill="none" fill-rule="nonzero" stroke="none" stroke-width="1" stroke-linecap="butt" stroke-linejoin="miter" stroke-miterlimit="10" stroke-dasharray="" stroke-dashoffset="0" font-family="none" font-weight="none" font-size="none" text-anchor="none" style="mix-blend-mode: normal"><g transform="scale(5.33333,5.33333)"><path d="M42,37c0,2.762 -2.238,5 -5,5h-26c-2.762,0 -5,-2.238 -5,-5v-26c0,-2.762 2.238,-5 5,-5h26c2.762,0 5,2.238 5,5z" fill="url(#color-1)"></path><path d="M35,24l-12.5,12.5l-6,-6l12.5,-12.5z" fill="url(#color-2)"></path><path d="M27.5,16.5l-6.5,6.5l-0.072,-0.359c-0.116,-0.581 -0.402,-1.114 -0.82,-1.533l-4.608,-4.608l6,-6z" fill="#ffffff"></path></g></g></svg>